<svg
    alt="Pest Logo"
    xmlns="http://www.w3.org/2000/svg"
    fill="none"
    viewBox="0 0 381 100"
>
    <path
        fill="#fff"
        fill-rule="evenodd"
        d="M16.6067 27.5097 22.9939 0h56.7875c15.6811 0 25.5336 12.3165 22.0066 27.5097l-1.9167 8.2529c-3.5272 15.1932-19.099 27.5097-34.7805 27.5097H36.697l-8.3033 35.7624H0l14.6906-63.2721h56.787l1.9166-8.2529H16.6067ZM295.574 0h85.181c-3.528 15.1932-19.1 27.5097-34.781 27.5097h-11.358l-16.606 71.525h-28.394l16.607-71.525h-73.824l-1.917 8.2529h28.394c15.682 0 25.535 12.3165 22.007 27.5097l-1.916 8.2526c-3.527 15.1937-19.1 27.5098-34.781 27.5098h-56.787l6.387-27.5098h56.787l1.916-8.2526h-28.394c-15.681 0-25.533-12.3165-22.006-27.5097l1.916-8.2529C207.532 12.3165 223.105 0 238.786 0h56.788Zm-93.7 0h-85.181l-6.387 27.5097h85.181L201.874 0Zm-25.34 35.7626h-68.145l-6.387 27.5097h68.145l6.387-27.5097Zm8.734 35.7623h-85.182l-6.3867 27.5098H178.88l6.388-27.5098Z"
        clip-rule="evenodd"
    ></path>
</svg>
